# xmcd
#
# Track frame offsets:
# 150
# 23995
# 42930
# 59210
# 73633
# 110113
# 125013
# 140093
# 158938
# 180978
#
# Disc length: 2921 seconds
#
#
# Revision: 4
# Processed by: cddbd v1.5PL3 Copyright (c) Steve Scherf et al.
# Submitted via: FreeRIP 2.60 
#
DISCID=9a0b670a
DTITLE=Alabama - Greatest Hits
DYEAR=1986
DGENRE=Country
TTITLE0=She And I
TTITLE1=Mountain Music
TTITLE2=Feels So Right
TTITLE3=Old Flame
TTITLE4=Tennessee River
TTITLE5=Love In The First Degree
TTITLE6=40 Hour Week(For A Livin')
TTITLE7=Why Lady Why
TTITLE8=The Fans
TTITLE9=My Home's In Alabama
EXTD=
EXTT0=
EXTT1=
EXTT2=
EXTT3=
EXTT4=
EXTT5=
EXTT6=
EXTT7=
EXTT8=
EXTT9=
PLAYORDER=
